<svg width="16" height="16" viewBox="0 0 16 16" fill="none" xmlns="http://www.w3.org/2000/svg">
<g clip-path="url(#clip0_128_3515)">
<path d="M4.1002 12.225L1.9502 15.5H3.1002L5.2002 12.225H4.1002Z" fill="#94989B"/>
<path d="M4.1 12.225H3L0.5 15.5H1.95L4.1 12.225Z" fill="#E6E6E6"/>
<path d="M11.8998 12.225H10.7998L12.8998 15.5H14.0498L11.8998 12.225Z" fill="#94989B"/>
<path d="M11.8999 12.225L14.0499 15.5H15.4999L12.9999 12.225H11.8999Z" fill="#E6E6E6"/>
<path d="M11.0001 12.525H5.0001L3.1001 15.5H12.9001L11.0001 12.525Z" fill="#3E4347"/>
<path d="M13.0999 8.05H2.8999V2.1C2.8999 1.95 5.4499 1.25 7.9999 1.25C10.5499 1.25 13.0999 1.95 13.0999 2.1V8.05Z" fill="#BA573F"/>
<path d="M13.7002 12.125C13.7002 13.05 2.3252 13.05 2.3252 12.125V10.6H13.7002V12.125Z" fill="#C5CDD3"/>
<path d="M12 13.175C12 14.3 4 14.3 4 13.175V11.3H12V13.175Z" fill="#DAE3EA"/>
<path d="M13.6998 10.6H2.2998V3.09999C2.2998 2.89999 5.1498 2.02499 7.9998 2.02499C10.8498 2.02499 13.6998 2.89999 13.6998 3.09999V10.6Z" fill="#F14E3A"/>
<path d="M2.9 3.425V5.8L7.725 5V2.625C7.675 2.425 2.875 3.225 2.9 3.425ZM8.275 2.625V5L13.075 5.775V3.4C13.125 3.225 8.325 2.425 8.275 2.625Z" fill="#3E4347"/>
<path d="M9.4749 10.6H6.5249V5.77499C6.5249 5.14999 9.4499 5.14999 9.4499 5.77499C9.4749 6.52499 9.4749 10.6 9.4749 10.6Z" fill="#FDF516"/>
<path d="M7.9999 7.65C8.46934 7.65 8.8499 7.28063 8.8499 6.825C8.8499 6.36936 8.46934 6 7.9999 6C7.53046 6 7.1499 6.36936 7.1499 6.825C7.1499 7.28063 7.53046 7.65 7.9999 7.65Z" fill="#3E4347"/>
<path d="M5.4748 2.05C5.91663 2.05 6.2748 1.70302 6.2748 1.275C6.2748 0.846979 5.91663 0.5 5.4748 0.5C5.03298 0.5 4.6748 0.846979 4.6748 1.275C4.6748 1.70302 5.03298 2.05 5.4748 2.05Z" fill="#F14E3A"/>
<path d="M10.5246 2.05C10.9664 2.05 11.3246 1.70302 11.3246 1.275C11.3246 0.846979 10.9664 0.5 10.5246 0.5C10.0828 0.5 9.72461 0.846979 9.72461 1.275C9.72461 1.70302 10.0828 2.05 10.5246 2.05Z" fill="#F14E3A"/>
<path d="M10.5747 8.40001C9.32471 8.12501 6.67471 8.12501 5.42471 8.40001C5.24971 8.42501 4.94971 8.60001 4.94971 8.87501V9.82501C4.94971 10.075 5.27471 10.25 5.42471 10.3C6.67471 10.575 9.32471 10.575 10.5747 10.3C10.7497 10.275 11.0497 10.1 11.0497 9.82501V8.87501C11.0747 8.60001 10.7497 8.42501 10.5747 8.40001ZM10.5247 9.65001C10.5247 9.82501 10.2747 9.95001 10.1247 9.95001C9.07471 10.125 6.89971 10.125 5.84971 9.95001C5.69971 9.92501 5.44971 9.80001 5.44971 9.65001V9.02501C5.44971 8.85001 5.69971 8.72501 5.84971 8.72501C6.89971 8.55001 9.07471 8.55001 10.1247 8.72501C10.2747 8.75001 10.5247 8.87501 10.5247 9.02501V9.65001Z" fill="#FDF516"/>
<path d="M2.2998 9.07501H13.6998V9.60001H2.2998V9.07501Z" fill="#FDF516"/>
<path d="M8.8248 9.075C8.8248 9.525 8.4498 9.9 7.9998 9.9C7.5498 9.9 7.1748 9.525 7.1748 9.075C7.1748 8.625 7.5498 8.25 7.9998 8.25C8.4498 8.25 8.8248 8.625 8.8248 9.075Z" fill="#3E4347"/>
<path d="M8 9.45001C8.20711 9.45001 8.375 9.28212 8.375 9.07501C8.375 8.86791 8.20711 8.70001 8 8.70001C7.79289 8.70001 7.625 8.86791 7.625 9.07501C7.625 9.28212 7.79289 9.45001 8 9.45001Z" fill="white"/>
<path d="M5.75 10.6H10.25V12.225H5.75V10.6Z" fill="#94989B"/>
<path d="M6.9502 11.725H7.4752V12.9H6.9502V11.725ZM8.5252 11.725H9.0502V12.9H8.5252V11.725Z" fill="#3E4347"/>
<path d="M2.0498 10.6H13.9748V11.3H2.0498V10.6Z" fill="#94989B"/>
<path d="M6.5249 13.25H9.4499V14.325H6.5249V13.25Z" fill="#F14E3A"/>
<path d="M13.9498 8.22499C13.9248 8.37499 13.7748 8.47499 13.5998 8.44999L11.2748 8.04999C11.1248 8.02499 10.9998 7.87499 11.0248 7.72499L11.1248 7.19999C11.1498 7.04999 11.2998 6.94999 11.4748 6.97499L13.7998 7.37499C13.9498 7.39999 14.0748 7.54999 14.0498 7.69999L13.9498 8.22499ZM4.9248 7.72499C4.9498 7.87499 4.8498 8.02499 4.6748 8.04999L2.3498 8.44999C2.1998 8.47499 2.0248 8.37499 1.9998 8.22499L1.8998 7.69999C1.8748 7.54999 1.9748 7.39999 2.1498 7.37499L4.4748 6.97499C4.6248 6.94999 4.7998 7.04999 4.8248 7.19999L4.9248 7.72499Z" fill="#3E4347"/>
</g>
<defs>
<clipPath id="clip0_128_3515">
<rect width="16" height="16" fill="white"/>
</clipPath>
</defs>
</svg>
