<svg width="20" height="21" viewBox="0 0 20 21" fill="none" xmlns="http://www.w3.org/2000/svg">
<g clip-path="url(#clip0_128_3612)">
<path d="M11.375 0C12.0977 0 12.7158 0.191313 13.2295 0.57394C13.7432 0.956566 14 1.42001 14 1.96429V7.46429C14 7.99628 13.7549 8.45052 13.2646 8.82701C12.7744 9.2035 12.1777 9.40197 11.4746 9.42243L12.7227 10.6624C12.7852 10.7238 12.8008 10.7954 12.7695 10.8772C12.7383 10.9591 12.6797 11 12.5938 11H6.40625C6.32031 11 6.26172 10.9591 6.23047 10.8772C6.19922 10.7954 6.21484 10.7238 6.27734 10.6624L7.52539 9.42243C6.82227 9.40197 6.22559 9.2035 5.73535 8.82701C5.24512 8.45052 5 7.99628 5 7.46429V1.96429C5 1.42001 5.25684 0.956566 5.77051 0.57394C6.28418 0.191313 6.90234 0 7.625 0H11.375ZM9.5 8.25C9.8125 8.25 10.0781 8.13542 10.2969 7.90625C10.5156 7.67708 10.625 7.39881 10.625 7.07143C10.625 6.74405 10.5156 6.46577 10.2969 6.23661C10.0781 6.00744 9.8125 5.89286 9.5 5.89286C9.1875 5.89286 8.92188 6.00744 8.70312 6.23661C8.48438 6.46577 8.375 6.74405 8.375 7.07143C8.375 7.39881 8.48438 7.67708 8.70312 7.90625C8.92188 8.13542 9.1875 8.25 9.5 8.25ZM12.875 4.71429V1.57143H6.125V4.71429H12.875Z" fill="#FD4200"/>
</g>
<rect y="13" width="20" height="8" rx="4" fill="#FD4200"/>
<path d="M4.42898 19V15.3636H5.08771V18.4478H6.68928V19H4.42898ZM7.91974 15.3636V19H7.26101V15.3636H7.91974ZM9.11958 15.3636L10.066 18.2259H10.1032L11.0479 15.3636H11.7723L10.4903 19H9.67711L8.39693 15.3636H9.11958ZM12.2512 19V15.3636H14.6163V15.9158H12.91V16.9031H14.4938V17.4553H12.91V18.4478H14.6305V19H12.2512Z" fill="white"/>
<defs>
<clipPath id="clip0_128_3612">
<rect width="9" height="11" fill="white" transform="translate(5)"/>
</clipPath>
</defs>
</svg>
